<svg xmlns="http://www.w3.org/2000/svg" viewBox="0 0 533 533">
  <defs>
    <!-- Outer bezel gradient - charcoal -->
    <linearGradient id="bezel" x1="0" y1="0" x2="0" y2="1">
      <stop offset="0%" stop-color="#5a5a5a"/>
      <stop offset="15%" stop-color="#4a4a4a"/>
      <stop offset="50%" stop-color="#333333"/>
      <stop offset="85%" stop-color="#3a3a3a"/>
      <stop offset="100%" stop-color="#252525"/>
    </linearGradient>
    <!-- Scan line pattern - dim background (7px pitch, 4.5px line) -->
    <pattern id="scanlines" width="1" height="7" patternUnits="userSpaceOnUse">
      <rect x="0" y="1.25" width="1" height="4.5" fill="#ffffff" opacity="0.12"/>
    </pattern>
    <!-- Scan line pattern - green glow near letter/cursor -->
    <pattern id="glowscanlines" width="1" height="7" patternUnits="userSpaceOnUse">
      <rect x="0" y="1.25" width="1" height="4.5" fill="#00FF66" opacity="0.95"/>
    </pattern>
    <!-- Glossy highlight -->
    <linearGradient id="gloss" x1="0" y1="0" x2="0" y2="1">
      <stop offset="0%" stop-color="#ffffff" stop-opacity="0.30"/>
      <stop offset="50%" stop-color="#ffffff" stop-opacity="0.06"/>
      <stop offset="100%" stop-color="#ffffff" stop-opacity="0"/>
    </linearGradient>
    <!-- Dome highlight - radial shine -->
    <radialGradient id="dome" cx="50%" cy="38%" r="55%">
      <stop offset="0%" stop-color="#ffffff" stop-opacity="0.12"/>
      <stop offset="40%" stop-color="#ffffff" stop-opacity="0.04"/>
      <stop offset="100%" stop-color="#ffffff" stop-opacity="0"/>
    </radialGradient>
    <!-- Dome edge shadow - vignette for convex look -->
    <radialGradient id="dome-edge" cx="50%" cy="50%" r="50%">
      <stop offset="60%" stop-color="#000000" stop-opacity="0"/>
      <stop offset="85%" stop-color="#000000" stop-opacity="0.15"/>
      <stop offset="100%" stop-color="#000000" stop-opacity="0.35"/>
    </radialGradient>
    <!-- C letter glow blur -->
    <filter id="cblur" x="-50%" y="-50%" width="200%" height="200%">
      <feGaussianBlur stdDeviation="28"/>
    </filter>
    <!-- Cursor glow blur - tighter than C -->
    <filter id="cursorblur" x="-200%" y="-20%" width="500%" height="140%">
      <feGaussianBlur stdDeviation="8"/>
    </filter>
    <!-- Mask: blurred C for phosphor glow -->
    <mask id="cmask-glow">
      <path transform="translate(87.2 423.9) scale(0.56 -0.57)" fill="white" stroke="white" stroke-width="14" stroke-linejoin="round" filter="url(#cblur)" d="M304 -10Q238 -10 188.5 15.0Q139 40 112.0 87.5Q85 135 85 200V350Q85 416 112.0 463.0Q139 510 188.5 535.0Q238 560 304 560Q399 560 457.0 509.0Q515 458 518 370H428Q425 423 392.5 451.5Q360 480 304 480Q245 480 210.0 446.5Q175 413 175 351V200Q175 138 210.0 104.0Q245 70 304 70Q360 70 392.5 99.0Q425 128 428 180H518Q515 92 457.0 41.0Q399 -10 304 -10Z"/>
    </mask>
    <!-- Mask: blurred cursor for phosphor glow -->
    <mask id="cursormask-glow">
      <rect x="408" y="73" width="24" height="390" fill="white" filter="url(#cursorblur)"/>
    </mask>
  </defs>

  <!-- Bezel -->
  <rect width="533" height="533" rx="100" fill="url(#bezel)"/>
  <!-- Dark inner border -->
  <rect x="18" y="18" width="497" height="497" rx="82" fill="#111"/>
  <!-- Screen -->
  <rect x="28" y="28" width="477" height="477" rx="72" fill="#000"/>
  <!-- Dim background scan lines -->
  <rect x="28" y="28" width="477" height="477" rx="72" fill="url(#scanlines)"/>
  <!-- Background scan lines glowing near the C -->
  <rect x="28" y="28" width="477" height="477" rx="72" fill="url(#glowscanlines)" mask="url(#cmask-glow)"/>
  <!-- Background scan lines glowing near the cursor -->
  <rect x="28" y="28" width="477" height="477" rx="72" fill="url(#glowscanlines)" opacity="0.5" mask="url(#cursormask-glow)"/>
  <!-- C letter - rounded scan line bars with curve-calculated x positions -->
  <g fill="#00FF66">
    <rect x="233.7" y="99.25" width="47.6" height="4.5" rx="2.25"/>
    <rect x="209.1" y="106.25" width="96.6" height="4.5" rx="2.25"/>
    <rect x="191.1" y="113.25" width="132.3" height="4.5" rx="2.25"/>
    <rect x="178.8" y="120.25" width="156.7" height="4.5" rx="2.25"/>
    <rect x="169.4" y="127.25" width="175.4" height="4.5" rx="2.25"/>
    <rect x="161.9" y="134.25" width="190.4" height="4.5" rx="2.25"/>
    <rect x="155.7" y="141.25" width="202.7" height="4.5" rx="2.25"/>
    <rect x="150.6" y="148.25" width="88.8" height="4.5" rx="2.25"/>
    <rect x="275.9" y="148.25" width="87.6" height="4.5" rx="2.25"/>
    <rect x="146.0" y="155.25" width="75.7" height="4.5" rx="2.25"/>
    <rect x="293.5" y="155.25" width="74.3" height="4.5" rx="2.25"/>
    <rect x="142.6" y="162.25" width="69.2" height="4.5" rx="2.25"/>
    <rect x="303.0" y="162.25" width="68.2" height="4.5" rx="2.25"/>
    <rect x="139.6" y="169.25" width="65.3" height="4.5" rx="2.25"/>
    <rect x="309.6" y="169.25" width="64.5" height="4.5" rx="2.25"/>
    <rect x="137.2" y="176.25" width="62.7" height="4.5" rx="2.25"/>
    <rect x="314.3" y="176.25" width="62.1" height="4.5" rx="2.25"/>
    <rect x="135.2" y="183.25" width="61.0" height="4.5" rx="2.25"/>
    <rect x="317.6" y="183.25" width="60.5" height="4.5" rx="2.25"/>
    <rect x="133.6" y="190.25" width="59.8" height="4.5" rx="2.25"/>
    <rect x="320.0" y="190.25" width="59.4" height="4.5" rx="2.25"/>
    <rect x="132.4" y="197.25" width="59.1" height="4.5" rx="2.25"/>
    <rect x="321.7" y="197.25" width="58.8" height="4.5" rx="2.25"/>
    <rect x="131.6" y="204.25" width="58.6" height="4.5" rx="2.25"/>
    <rect x="322.6" y="204.25" width="58.4" height="4.5" rx="2.25"/>
    <rect x="131.1" y="211.25" width="58.3" height="4.5" rx="2.25"/>
    <rect x="130.9" y="218.25" width="58.2" height="4.5" rx="2.25"/>
    <rect x="130.9" y="225.25" width="58.2" height="4.5" rx="2.25"/>
    <rect x="130.9" y="232.25" width="58.2" height="4.5" rx="2.25"/>
    <rect x="130.9" y="239.25" width="58.2" height="4.5" rx="2.25"/>
    <rect x="130.9" y="246.25" width="58.2" height="4.5" rx="2.25"/>
    <rect x="130.9" y="253.25" width="58.2" height="4.5" rx="2.25"/>
    <rect x="130.9" y="260.25" width="58.2" height="4.5" rx="2.25"/>
    <rect x="130.9" y="267.25" width="58.2" height="4.5" rx="2.25"/>
    <rect x="130.9" y="274.25" width="58.2" height="4.5" rx="2.25"/>
    <rect x="130.9" y="281.25" width="58.2" height="4.5" rx="2.25"/>
    <rect x="130.9" y="288.25" width="58.2" height="4.5" rx="2.25"/>
    <rect x="130.9" y="295.25" width="58.2" height="4.5" rx="2.25"/>
    <rect x="130.9" y="302.25" width="58.2" height="4.5" rx="2.25"/>
    <rect x="130.9" y="309.25" width="58.2" height="4.5" rx="2.25"/>
    <rect x="131.1" y="316.25" width="58.3" height="4.5" rx="2.25"/>
    <rect x="131.6" y="323.25" width="58.6" height="4.5" rx="2.25"/>
    <rect x="322.6" y="323.25" width="58.4" height="4.5" rx="2.25"/>
    <rect x="132.4" y="330.25" width="59.1" height="4.5" rx="2.25"/>
    <rect x="321.7" y="330.25" width="58.8" height="4.5" rx="2.25"/>
    <rect x="133.6" y="337.25" width="59.8" height="4.5" rx="2.25"/>
    <rect x="320.0" y="337.25" width="59.4" height="4.5" rx="2.25"/>
    <rect x="135.2" y="344.25" width="61.0" height="4.5" rx="2.25"/>
    <rect x="317.6" y="344.25" width="60.5" height="4.5" rx="2.25"/>
    <rect x="137.2" y="351.25" width="62.7" height="4.5" rx="2.25"/>
    <rect x="314.3" y="351.25" width="62.1" height="4.5" rx="2.25"/>
    <rect x="139.6" y="358.25" width="65.3" height="4.5" rx="2.25"/>
    <rect x="309.6" y="358.25" width="64.5" height="4.5" rx="2.25"/>
    <rect x="142.6" y="365.25" width="69.2" height="4.5" rx="2.25"/>
    <rect x="303.0" y="365.25" width="68.2" height="4.5" rx="2.25"/>
    <rect x="146.0" y="372.25" width="75.7" height="4.5" rx="2.25"/>
    <rect x="293.5" y="372.25" width="74.3" height="4.5" rx="2.25"/>
    <rect x="150.6" y="379.25" width="88.8" height="4.5" rx="2.25"/>
    <rect x="275.9" y="379.25" width="87.6" height="4.5" rx="2.25"/>
    <rect x="155.7" y="386.25" width="202.7" height="4.5" rx="2.25"/>
    <rect x="161.9" y="393.25" width="190.4" height="4.5" rx="2.25"/>
    <rect x="169.4" y="400.25" width="175.4" height="4.5" rx="2.25"/>
    <rect x="178.8" y="407.25" width="156.7" height="4.5" rx="2.25"/>
    <rect x="191.1" y="414.25" width="132.3" height="4.5" rx="2.25"/>
    <rect x="209.1" y="421.25" width="96.6" height="4.5" rx="2.25"/>
    <rect x="233.7" y="428.25" width="47.6" height="4.5" rx="2.25"/>
  </g>
  <!-- Cursor - rounded scan line bars -->
  <g fill="#00FF66" opacity="0.35">
    <rect x="408" y="71.25" width="24" height="4.5" rx="2.25"/>
    <rect x="408" y="78.25" width="24" height="4.5" rx="2.25"/>
    <rect x="408" y="85.25" width="24" height="4.5" rx="2.25"/>
    <rect x="408" y="92.25" width="24" height="4.5" rx="2.25"/>
    <rect x="408" y="99.25" width="24" height="4.5" rx="2.25"/>
    <rect x="408" y="106.25" width="24" height="4.5" rx="2.25"/>
    <rect x="408" y="113.25" width="24" height="4.5" rx="2.25"/>
    <rect x="408" y="120.25" width="24" height="4.5" rx="2.25"/>
    <rect x="408" y="127.25" width="24" height="4.5" rx="2.25"/>
    <rect x="408" y="134.25" width="24" height="4.5" rx="2.25"/>
    <rect x="408" y="141.25" width="24" height="4.5" rx="2.25"/>
    <rect x="408" y="148.25" width="24" height="4.5" rx="2.25"/>
    <rect x="408" y="155.25" width="24" height="4.5" rx="2.25"/>
    <rect x="408" y="162.25" width="24" height="4.5" rx="2.25"/>
    <rect x="408" y="169.25" width="24" height="4.5" rx="2.25"/>
    <rect x="408" y="176.25" width="24" height="4.5" rx="2.25"/>
    <rect x="408" y="183.25" width="24" height="4.5" rx="2.25"/>
    <rect x="408" y="190.25" width="24" height="4.5" rx="2.25"/>
    <rect x="408" y="197.25" width="24" height="4.5" rx="2.25"/>
    <rect x="408" y="204.25" width="24" height="4.5" rx="2.25"/>
    <rect x="408" y="211.25" width="24" height="4.5" rx="2.25"/>
    <rect x="408" y="218.25" width="24" height="4.5" rx="2.25"/>
    <rect x="408" y="225.25" width="24" height="4.5" rx="2.25"/>
    <rect x="408" y="232.25" width="24" height="4.5" rx="2.25"/>
    <rect x="408" y="239.25" width="24" height="4.5" rx="2.25"/>
    <rect x="408" y="246.25" width="24" height="4.5" rx="2.25"/>
    <rect x="408" y="253.25" width="24" height="4.5" rx="2.25"/>
    <rect x="408" y="260.25" width="24" height="4.5" rx="2.25"/>
    <rect x="408" y="267.25" width="24" height="4.5" rx="2.25"/>
    <rect x="408" y="274.25" width="24" height="4.5" rx="2.25"/>
    <rect x="408" y="281.25" width="24" height="4.5" rx="2.25"/>
    <rect x="408" y="288.25" width="24" height="4.5" rx="2.25"/>
    <rect x="408" y="295.25" width="24" height="4.5" rx="2.25"/>
    <rect x="408" y="302.25" width="24" height="4.5" rx="2.25"/>
    <rect x="408" y="309.25" width="24" height="4.5" rx="2.25"/>
    <rect x="408" y="316.25" width="24" height="4.5" rx="2.25"/>
    <rect x="408" y="323.25" width="24" height="4.5" rx="2.25"/>
    <rect x="408" y="330.25" width="24" height="4.5" rx="2.25"/>
    <rect x="408" y="337.25" width="24" height="4.5" rx="2.25"/>
    <rect x="408" y="344.25" width="24" height="4.5" rx="2.25"/>
    <rect x="408" y="351.25" width="24" height="4.5" rx="2.25"/>
    <rect x="408" y="358.25" width="24" height="4.5" rx="2.25"/>
    <rect x="408" y="365.25" width="24" height="4.5" rx="2.25"/>
    <rect x="408" y="372.25" width="24" height="4.5" rx="2.25"/>
    <rect x="408" y="379.25" width="24" height="4.5" rx="2.25"/>
    <rect x="408" y="386.25" width="24" height="4.5" rx="2.25"/>
    <rect x="408" y="393.25" width="24" height="4.5" rx="2.25"/>
    <rect x="408" y="400.25" width="24" height="4.5" rx="2.25"/>
    <rect x="408" y="407.25" width="24" height="4.5" rx="2.25"/>
    <rect x="408" y="414.25" width="24" height="4.5" rx="2.25"/>
    <rect x="408" y="421.25" width="24" height="4.5" rx="2.25"/>
    <rect x="408" y="428.25" width="24" height="4.5" rx="2.25"/>
    <rect x="408" y="435.25" width="24" height="4.5" rx="2.25"/>
    <rect x="408" y="442.25" width="24" height="4.5" rx="2.25"/>
    <rect x="408" y="449.25" width="24" height="4.5" rx="2.25"/>
    <rect x="408" y="456.25" width="24" height="4.5" rx="2.25"/>
  </g>
  <!-- Dome edge shadow -->
  <rect x="28" y="28" width="477" height="477" rx="72" fill="url(#dome-edge)"/>
  <!-- Dome highlight -->
  <rect x="28" y="28" width="477" height="477" rx="72" fill="url(#dome)"/>
  <!-- Gloss -->
  <path d="M28,100 A72,72 0 0,1 100,28 L433,28 A72,72 0 0,1 505,100 L505,287 Q267,362 28,287 Z" fill="url(#gloss)"/>
</svg>
